HIERARCHY
ROOT Hips
{
	OFFSET 0.00000 0.00000 0.00000
	CHANNELS 6 Xposition Yposition Zposition Zrotation Yrotation Xrotation 
	JOINT LHipJoint
	{
		OFFSET 0 0 0
		CHANNELS 3 Zrotation Yrotation Xrotation
		JOINT LeftHip
		{
			OFFSET 2.36090 -1.39315 1.24752
			CHANNELS 3 Zrotation Yrotation Xrotation
			JOINT LeftKnee
			{
				OFFSET 2.06810 -5.68207 0.00000
				CHANNELS 3 Zrotation Yrotation Xrotation
				JOINT LeftAnkle
				{
					OFFSET 2.46631 -6.77613 0.00000
					CHANNELS 3 Zrotation Yrotation Xrotation
					JOINT LeftToe
					{
						OFFSET 0.26031 -0.71520 1.99545
						CHANNELS 3 Zrotation Yrotation Xrotation
						End Site
						{
							OFFSET 0.00000 -0.00000 1.05957
						}
					}
				}
			}
		}
	}
	JOINT RHipJoint
	{
		OFFSET 0 0 0
		CHANNELS 3 Zrotation Yrotation Xrotation
		JOINT RightHip
		{
			OFFSET -2.25243 -1.39315 1.24752
			CHANNELS 3 Zrotation Yrotation Xrotation
			JOINT RightKnee
			{
				OFFSET -2.17343 -5.97145 0.00000
				CHANNELS 3 Zrotation Yrotation Xrotation
				JOINT RightAnkle
				{
					OFFSET -2.52372 -6.93386 0.00000
					CHANNELS 3 Zrotation Yrotation Xrotation
					JOINT RightToe
					{
						OFFSET -0.22538 -0.61923 2.11447
						CHANNELS 3 Zrotation Yrotation Xrotation
						End Site
						{
							OFFSET -0.00000 -0.00000 1.10506
						}
					}
				}
			}
		}
	}
	JOINT lowerback
	{
		OFFSET 0 0 0
		CHANNELS 3 Zrotation Yrotation Xrotation
		JOINT Chest
		{
			OFFSET 0.01594 2.13103 0.08007
			CHANNELS 3 Zrotation Yrotation Xrotation
			JOINT Chest2
			{
				OFFSET 0.01393 2.09723 0.18338
				CHANNELS 3 Zrotation Yrotation Xrotation
				JOINT lowerneck
				{
					OFFSET 0 0 0
					CHANNELS 3 Zrotation Yrotation Xrotation
					JOINT Neck
					{
						OFFSET 0.05351 1.38915 0.32494
						CHANNELS 3 Zrotation Yrotation Xrotation
						JOINT Head
						{
							OFFSET 0.00711 1.45992 -0.21666
							CHANNELS 3 Zrotation Yrotation Xrotation
							End Site
							{
								OFFSET -0.00433 1.47702 -0.11056
							}
						}
					}
				}
				JOINT LeftCollar
				{
					OFFSET 0 0 0
					CHANNELS 3 Zrotation Yrotation Xrotation
					JOINT LeftShoulder
					{
						OFFSET 2.87198 0.92249 0.11132
CHANNELS 3 Zrotation Xrotation Yrotation
						JOINT LeftElbow
						{
OFFSET 0 -5.527310 0.000000
CHANNELS 3 Zrotation Xrotation Yrotation
							JOINT LeftWrist
							{
OFFSET 0 -3.110590 0.000000
CHANNELS 3 Zrotation Xrotation Yrotation
								JOINT lhand
								{
									OFFSET 0 0 0
CHANNELS 3 Zrotation Xrotation Yrotation
									JOINT LFingers
									{
OFFSET 0 -0.419630 0.000000
CHANNELS 3 Zrotation Xrotation Yrotation
										End Site
										{
OFFSET 0 -0.338310 0.000000
										}
									}
								}
								JOINT LThumb
								{
OFFSET 0 0.000000 0.000000
CHANNELS 3 Zrotation Xrotation Yrotation
									End Site
									{
OFFSET 0 -0.343480 0.343480
									}
								}
							}
						}
					}
				}
				JOINT RightCollar
				{
					OFFSET 0 0 0
					CHANNELS 3 Zrotation Yrotation Xrotation
					JOINT RightShoulder
					{
						OFFSET -2.94710 0.68072 0.32187
CHANNELS 3 Zrotation Xrotation Yrotation
						JOINT RightElbow
						{
OFFSET 0 -5.253960 -0.000000
CHANNELS 3 Zrotation Xrotation Yrotation
							JOINT RightWrist
							{
OFFSET 0 -3.105670 0.000000
CHANNELS 3 Zrotation Xrotation Yrotation
								JOINT rhand
								{
									OFFSET 0 0 0
CHANNELS 3 Zrotation Xrotation Yrotation
									JOINT RFingers
									{
OFFSET 0 -0.498680 0.000000
CHANNELS 3 Zrotation Xrotation Yrotation
										End Site
										{
OFFSET 0 -0.402040 0.000000
										}
									}
								}
								JOINT RThumb
								{
OFFSET 0 0.000000 0.000000
CHANNELS 3 Zrotation Xrotation Yrotation
									End Site
									{
OFFSET 0 -0.408180 0.408180
									}
								}
							}
						}
					}
				}
			}
		}
	}
}
MOTION
Frames: 4
Frame Time: 0.008333333333333333
6.988774 15.666074 24.957899 0.852173 -87.915585 17.401606 0.000000 0.000000 0.000000 0.000000 0.000000 0.000000 0.000000 0.000000 0.000000 0.000000 0.000000 0.000000 0.000000 0.000000 0.000000 0.000000 0.000000 0.000000 11.839633 32.593560 -17.404875 -2.619217 -10.051508 29.143852 0.135626 -17.889103 -24.128908 -0.394486 4.032769 -11.168834 2.903362 3.096398 -6.920332 -4.171411 2.833403 -15.336263 -6.213337 0.300769 -12.426510 17.156241 17.571709 -8.507958 -17.308899 26.564013 24.025929 -4.655015 11.483108 14.536813 0.000000 0.000000 0.000000 130.943475 11.436511 67.312110 14.903227 -24.011049 3.186432 71.878274 -83.111150 37.413158 0.000000 0.000000 0.000000 -7.125000 0.000000 0.000000 18.681426 -35.490660 26.778059 0.000000 0.000000 0.000000 -131.074541 6.721111 -72.884929 -15.144981 -24.347558 -3.285568 -51.899199 21.660401 19.102891 0.000000 0.000000 0.000000 7.125000 0.000000 0.000000 -27.406324 57.101947 8.562348
6.989522 15.666822 24.958896 0.610140 -87.938471 17.650646 0.000000 0.000000 0.000000 0.000000 0.000000 0.000000 0.000000 0.000000 0.000000 0.000000 0.000000 0.000000 0.000000 0.000000 0.000000 0.000000 0.000000 0.000000 11.834307 32.582411 -17.416429 -2.615018 -10.044043 29.119524 0.134729 -17.862835 -24.098723 -0.395508 4.038064 -11.183859 2.882488 3.123226 -6.935870 -4.160690 2.867787 -15.358646 -6.190621 0.319201 -12.440952 17.069063 17.537672 -8.580123 -17.218983 26.514143 24.151018 -4.620030 11.452330 14.563088 0.000000 0.000000 0.000000 130.783412 11.502660 67.432792 15.077159 -24.253455 3.257619 73.317074 -85.709953 38.007740 0.000000 0.000000 0.000000 -7.125000 0.000000 0.000000 19.141479 -37.344324 27.552860 0.000000 0.000000 0.000000 -131.041644 6.721619 -72.765475 -15.418381 -24.725453 -3.399156 -53.660439 21.947544 18.707165 0.000000 0.000000 0.000000 7.125000 0.000000 0.000000 -29.685765 57.148525 9.399052
6.990271 15.667571 24.959771 0.215470 -87.961227 18.053168 0.000000 0.000000 0.000000 0.000000 0.000000 0.000000 0.000000 0.000000 0.000000 0.000000 0.000000 0.000000 0.000000 0.000000 0.000000 0.000000 0.000000 0.000000 11.834165 32.566249 -17.428721 -2.609597 -10.034573 29.088684 0.133544 -17.831719 -24.063743 -0.396509 4.042944 -11.197624 2.857825 3.166178 -6.952324 -4.143440 2.924494 -15.386934 -6.159296 0.349390 -12.459336 16.939671 17.483383 -8.628596 -17.107645 26.436502 24.278214 -4.581201 11.410413 14.567853 0.000000 0.000000 0.000000 130.582350 11.522585 67.616832 15.270943 -24.522102 3.337647 74.830406 -88.346010 38.611317 0.000000 0.000000 0.000000 -7.125000 0.000000 0.000000 19.632443 -39.268415 28.348922 0.000000 0.000000 0.000000 -131.052313 6.768100 -72.586121 -15.703315 -25.116492 -3.519270 -55.331152 22.643795 18.595888 0.000000 0.000000 0.000000 7.125000 0.000000 0.000000 -32.079370 57.556889 10.593341
6.991019 15.668232 24.960605 -0.290010 -87.983607 18.570204 0.000000 0.000000 0.000000 0.000000 0.000000 0.000000 0.000000 0.000000 0.000000 0.000000 0.000000 0.000000 0.000000 0.000000 0.000000 0.000000 0.000000 0.000000 11.836430 32.547950 -17.443788 -2.603303 -10.023358 29.052284 0.132941 -17.800148 -24.022733 -0.397997 4.050559 -11.218979 2.823703 3.232549 -6.977057 -4.120796 3.013244 -15.420687 -6.117268 0.397066 -12.475677 16.751845 17.401131 -8.655128 -16.973659 26.321471 24.408461 -4.538260 11.351810 14.547116 0.000000 0.000000 0.000000 130.337543 11.464152 67.925340 15.481628 -24.812652 3.425564 76.231742 -90.680627 39.150827 0.000000 0.000000 0.000000 -7.125000 0.000000 0.000000 20.093841 -41.024858 29.068112 0.000000 0.000000 0.000000 -131.095993 6.883787 -72.293288 -16.018255 -25.545252 -3.653922 -56.921900 23.852809 18.826178 0.000000 0.000000 0.000000 7.125000 0.000000 0.000000 -34.736752 58.409890 12.349341
